# xmcd
#
# Track frame offsets: 
#        150
#        15790
#        28160
#        43818
#        57033
#        68313
#        80173
#        96680
#        109940
#        127563
#        144873
#        159885
#        176430
#        192795
#        206070
#        216838
#        230798
#        245163
#        258230
#        274145
#
# Disc length: 3821 seconds
#
# Revision: 4
# Processed by: cddbd v1.5.2PL0 Copyright (c) Steve Scherf et al.
# Submitted via: ExactAudioCopy v0.95b4
#
DISCID=140eeb14
DTITLE=Various Artist - America's Dancin' - Disc 2
DYEAR=1993
DGENRE=
TTITLE0=Bellamy Brothers - Cowboy Beat
TTITLE1=Janie Frickie - She's Single Again
TTITLE2=Doug Stone - A Jukebox with a Country Song
TTITLE3=Hal Ketchum - Small Town Saturday Night
TTITLE4=Highway 101 - Bing Bang Boom
TTITLE5=Marty Stuart - Hillbilly Rock
TTITLE6=Shenandoah - Next to You, Next to Me
TTITLE7=Roy Orbison - Oh Pretty Woman
TTITLE8=Exile - Super Love
TTITLE9=Ricky Skaggs - Same Ol' Love
TTITLE10=Forrester Sisters - Men
TTITLE11=Stacy Dean Campbell - Rosalee
TTITLE12=Steve Wariner - Tips of My Fingers
TTITLE13=Desert Rose Band - She Don't Love Nobody
TTITLE14=Joy White - Little Tears
TTITLE15=Alan Jackson - Chasin' That Neon Rainbow
TTITLE16=Pam Tillis - Don't Tell Me What to Do
TTITLE17=Vince Gill - Liza Jane
TTITLE18=Gibson Miller Band - High Rollin'
TTITLE19=Eddy Raven - Bayou Boys
EXTD=
EXTT0=
EXTT1=
EXTT2=
EXTT3=
EXTT4=
EXTT5=
EXTT6=
EXTT7=
EXTT8=
EXTT9=
EXTT10=
EXTT11=
EXTT12=
EXTT13=
EXTT14=
EXTT15=
EXTT16=
EXTT17=
EXTT18=
EXTT19=
PLAYORDER=
